<svg width="16" height="16" viewBox="0 0 16 16" fill="none" xmlns="http://www.w3.org/2000/svg">
<path d="M0.0223734 15.8951C0.0223734 12.0694 -0.04091 8.35866 0.0453856 4.64795C0.102916 2.04183 1.84033 0.177841 4.45221 0.0742866C8.24347 -0.0695394 12.121 0.0397682 15.9986 0.0397682C15.9986 1.36297 16.0043 7.32887 15.9928 10.5851C15.9871 12.0464 15.6994 13.4213 14.5891 14.5087C13.7721 15.3083 12.8056 15.8606 11.6838 15.8779C7.82925 15.9297 3.97471 15.9009 0.0223734 15.9009V15.8951Z" fill="#0C5B9D"/>
<path d="M9.41136 13.11C9.14672 12.8281 8.96262 12.6268 8.77277 12.4312C7.62792 11.2518 6.41978 10.1357 5.36122 8.88732C4.36595 7.71945 4.54429 6.07408 5.62011 4.88896C6.66716 3.7326 8.3413 3.48522 9.69901 4.27914C11.1143 5.10757 11.6723 6.52857 11.1775 8.0071C10.7978 9.14621 9.94639 9.83082 8.7325 10.3774C9.37109 10.9354 9.90037 11.4014 10.4814 11.9077C12.1441 10.5672 13.3925 8.9391 13.2774 6.62638C13.1738 4.5035 11.6608 2.71431 9.53218 2.05271C7.38629 1.38536 5.15987 2.11024 3.76763 3.93395C2.49621 5.60233 2.23732 8.08189 3.50874 9.73877C4.82619 11.4532 6.4543 12.926 7.94434 14.508C8.50238 13.973 8.9166 13.576 9.40561 13.1158L9.41136 13.11ZM6.12062 7.09237C6.13788 8.13942 6.98933 8.97937 8.04789 8.98512C9.1122 8.98512 10.0442 8.06463 10.0154 7.01758C9.99242 6.0108 9.07769 5.11333 8.06515 5.10757C7.00659 5.09607 6.10336 6.01655 6.12062 7.09237Z" fill="white"/>
<path d="M11.1775 8.01463C10.7978 9.15373 9.94631 9.83834 8.73242 10.3849C9.37101 10.9429 9.90029 11.4089 10.4813 11.9152C11.8908 10.7761 13.0012 9.43563 13.2371 7.64068C12.5237 6.95607 11.4939 5.98956 10.9416 5.47754C11.3846 6.21968 11.4824 7.10565 11.1775 8.01463Z" fill="#6EB3F2"/>
</svg>
