<svg width="28" height="28" viewBox="0 0 28 28" fill="none" xmlns="http://www.w3.org/2000/svg">
<path d="M0.0391449 27.8104C0.0391449 21.1168 -0.071577 14.6245 0.0794074 8.13214C0.180064 3.57242 3.21988 0.311154 7.78968 0.129973C14.4229 -0.121667 21.2072 0.0695792 27.9914 0.0695792C27.9914 2.38467 28.0014 12.8227 27.9813 18.5199C27.9713 21.0765 27.468 23.4822 25.5253 25.3846C24.096 26.7837 22.405 27.75 20.4422 27.7802C13.6982 27.8708 6.95423 27.8205 0.0391449 27.8205V27.8104Z" fill="#0C5B9D"/>
<path d="M16.4663 22.9383C16.0033 22.4451 15.6812 22.0928 15.3491 21.7505C13.346 19.6871 11.2322 17.7343 9.38014 15.5501C7.63879 13.5068 7.95082 10.628 9.83309 8.5545C11.665 6.53131 14.5941 6.09849 16.9696 7.48755C19.4458 8.937 20.4221 11.4232 19.5565 14.0101C18.8922 16.0031 17.4024 17.2009 15.2786 18.1571C16.3959 19.1335 17.3219 19.9488 18.3385 20.8346C21.2475 18.4893 23.4317 15.6407 23.2304 11.5943C23.0493 7.8801 20.402 4.7497 16.6777 3.59215C12.9232 2.42454 9.02784 3.69281 6.59196 6.88361C4.36746 9.80264 3.9145 14.1409 6.13901 17.0398C8.44403 20.0394 11.2926 22.6162 13.8996 25.3842C14.876 24.4481 15.6007 23.7536 16.4563 22.9483L16.4663 22.9383ZM10.7088 12.4096C10.739 14.2416 12.2287 15.7112 14.0808 15.7212C15.9429 15.7212 17.5736 14.1107 17.5232 12.2788C17.483 10.5173 15.8825 8.94706 14.111 8.937C12.2589 8.91686 10.6786 10.5274 10.7088 12.4096Z" fill="white"/>
<path d="M19.5565 14.021C18.8921 16.014 17.4024 17.2118 15.2786 18.168C16.3958 19.1444 17.3219 19.9597 18.3385 20.8455C20.8046 18.8525 22.7473 16.5072 23.1599 13.3667C21.9118 12.1689 20.1101 10.4779 19.1438 9.58203C19.9188 10.8805 20.0899 12.4306 19.5565 14.021Z" fill="#6EB3F2"/>
</svg>
