<svg width="840" height="186" viewBox="0 0 840 186" fill="none" xmlns="http://www.w3.org/2000/svg">
<g clip-path="url(#clip0_1006_16255)">
<path d="M0.19603 148.415C0.19603 115.939 -0.341179 84.4386 0.391379 52.9386C0.879751 30.8154 15.6286 14.9921 37.8007 14.113C69.9844 12.8921 102.901 13.82 135.817 13.82C135.817 25.0526 135.866 75.6968 135.768 103.339C135.719 115.743 133.277 127.415 123.852 136.646C116.917 143.434 108.712 148.122 99.1891 148.269C66.4681 148.708 33.7472 148.464 0.19603 148.464V148.415Z" fill="#0C5B9D"/>
<path d="M79.8989 124.777C77.6524 122.384 76.0896 120.675 74.478 119.014C64.7594 109.003 54.5035 99.5284 45.5175 88.9307C37.0687 79.0168 38.5826 65.0493 47.7152 54.9889C56.6035 45.1726 70.8152 43.0726 82.3408 49.8121C94.3547 56.8447 99.0919 68.9075 94.8919 81.4586C91.6687 91.1284 84.4407 96.94 74.1361 101.58C79.557 106.317 84.05 110.273 88.9826 114.57C103.097 103.191 113.694 89.3703 112.717 69.7377C111.838 51.7168 98.9942 36.5284 80.9245 30.9121C62.7082 25.247 43.8082 31.4005 31.9896 46.8819C21.1966 61.0447 18.9989 82.0935 29.7919 96.1586C40.9756 110.712 54.7966 123.214 67.4454 136.645C72.1826 132.103 75.6989 128.733 79.8501 124.826L79.8989 124.777ZM51.964 73.6935C52.1105 82.5819 59.3384 89.7121 68.3245 89.761C77.3594 89.761 85.271 81.947 85.0268 73.0586C84.8314 64.5121 77.0663 56.8935 68.471 56.8447C59.4849 56.747 51.8175 64.561 51.964 73.6935Z" fill="white"/>
<path d="M94.8918 81.5108C91.6685 91.1806 84.4406 96.9922 74.136 101.632C79.5569 106.369 84.0499 110.325 88.9825 114.622C100.948 104.953 110.373 93.5736 112.376 78.3364C106.32 72.5248 97.5779 64.3201 92.8895 59.9736C96.6499 66.2736 97.4802 73.7946 94.8918 81.5108Z" fill="#6EB3F2"/>
<path d="M252.929 137.674H233.98V46.7393H252.929V137.723V137.674Z" fill="#005BA1"/>
<path d="M332.337 139.628H313.388V134.109C311.288 136.112 308.993 137.528 306.356 138.358C303.767 139.188 300.3 139.579 295.953 139.579C290.239 139.579 285.16 138.505 280.667 136.307C276.223 134.158 272.414 131.277 269.288 127.76C266.163 124.244 263.818 120.337 262.207 115.991C260.595 111.644 259.814 107.298 259.814 102.951C259.814 98.6046 260.595 94.4046 262.207 90.0581C263.818 85.7116 266.163 81.8046 269.288 78.3372C272.414 74.8697 276.174 72.0372 280.667 69.7907C285.111 67.593 290.239 66.4697 295.953 66.4697C300.739 66.4697 305.281 67.4465 309.677 69.4488C314.072 71.4511 317.93 74.1372 321.3 77.5069C324.67 80.8767 327.356 84.7837 329.358 89.2279C331.36 93.6721 332.337 98.2628 332.337 103.049V139.481V139.628ZM278.811 103.195C278.811 105.588 279.251 107.884 280.179 109.984C281.107 112.084 282.328 113.939 283.89 115.551C285.453 117.163 287.26 118.384 289.311 119.312C291.363 120.239 293.609 120.679 296.051 120.679C298.493 120.679 300.739 120.239 302.839 119.312C304.939 118.384 306.795 117.163 308.358 115.551C309.921 113.939 311.142 112.084 312.07 109.984C312.997 107.884 313.437 105.588 313.437 103.195C313.437 100.802 312.997 98.5069 312.07 96.3093C311.142 94.1604 309.921 92.2558 308.358 90.693C306.795 89.0814 304.988 87.8604 302.839 86.9325C300.739 86.0046 298.444 85.5651 296.051 85.5651C293.658 85.5651 291.411 86.0046 289.311 86.9325C287.211 87.8604 285.404 89.0814 283.89 90.693C282.328 92.3046 281.107 94.1604 280.179 96.3093C279.251 98.4581 278.811 100.753 278.811 103.195Z" fill="#005BA1"/>
<path d="M404.03 125.076C401.246 129.325 397.486 132.793 392.748 135.479C387.962 138.165 382.2 139.532 375.46 139.63C370.674 139.63 366.132 138.702 361.737 136.895C357.342 135.088 353.483 132.548 350.162 129.276C346.842 126.004 344.155 122.195 342.153 117.702C340.151 113.258 339.174 108.374 339.174 103.1C339.369 97.6298 340.444 92.6972 342.495 88.2042C344.546 83.76 347.232 79.9019 350.553 76.7275C353.874 73.5042 357.683 71.0135 361.981 69.2554C366.279 67.4972 370.772 66.5693 375.411 66.5693C381.125 66.5693 386.107 67.5461 390.307 69.4507C394.507 71.3554 398.023 73.8949 400.904 77.1182L383.762 87.9112C381.272 86.3484 378.488 85.567 375.46 85.567C373.311 85.567 371.162 85.9577 369.111 86.7879C367.011 87.6182 365.204 88.7903 363.593 90.3531C361.981 91.9158 360.711 93.7717 359.686 95.9205C358.709 98.0693 358.172 100.462 358.172 103.051C358.172 105.639 358.66 108.179 359.686 110.327C360.662 112.476 361.981 114.332 363.593 115.846C365.204 117.36 367.06 118.532 369.111 119.362C371.211 120.193 373.311 120.583 375.46 120.583C379.611 120.583 383.128 119.265 386.009 116.579L404.079 125.027L404.03 125.076Z" fill="#005BA1"/>
<path d="M430.549 109.888C430.353 111.255 430.695 112.623 431.525 113.893C432.356 115.211 433.43 116.334 434.7 117.262C436.019 118.239 437.435 119.021 438.998 119.607C440.56 120.193 441.977 120.534 443.295 120.534C446.665 120.534 449.595 119.655 452.135 117.946H475.381C474.258 120.974 472.744 123.807 470.888 126.395C469.032 128.983 466.737 131.279 464.051 133.232C461.365 135.186 458.288 136.7 454.821 137.823C451.353 138.946 447.495 139.532 443.246 139.532C438.46 139.532 434.016 138.702 429.816 137.041C425.616 135.381 421.953 132.988 418.828 129.814C415.702 126.639 413.26 122.732 411.502 118.044C409.744 113.355 408.816 107.983 408.816 101.927C409.012 96.9949 409.988 92.3554 411.893 88.0089C413.749 83.6624 416.239 79.9507 419.316 76.7763C422.393 73.6019 426.007 71.1112 430.109 69.3042C434.212 67.4972 438.607 66.5693 443.295 66.5693C449.009 66.5693 454.088 67.6438 458.484 69.7438C462.879 71.8438 466.591 74.8228 469.57 78.6321C472.549 82.4414 474.746 87.0321 476.065 92.3554C477.384 97.6786 477.921 103.49 477.579 109.839H430.549V109.888ZM443.295 85.567C441.732 85.567 440.218 85.86 438.802 86.3972C437.386 86.9833 436.067 87.7647 434.895 88.7414C433.723 89.7182 432.795 90.8414 432.112 92.1112C431.428 93.381 431.086 94.6996 431.086 96.067H455.114C454.919 94.6996 454.528 93.381 453.795 92.1112C453.112 90.8414 452.232 89.7182 451.207 88.7414C450.181 87.7647 448.96 86.9833 447.642 86.3972C446.274 85.8112 444.858 85.567 443.295 85.567Z" fill="#005BA1"/>
<path d="M525.391 109.983C520.019 109.886 514.988 109.641 510.3 109.251C505.612 108.86 501.509 108.03 498.042 106.711C494.526 105.393 491.742 103.439 489.642 100.802C487.542 98.1647 486.516 94.5507 486.516 89.96C486.419 82.6833 488.665 77.3112 493.256 73.7949C497.846 70.2786 504.928 68.5205 514.549 68.5205H544.584V86.1996H514.549C512.4 86.1996 510.691 86.3461 509.47 86.5903C508.249 86.8345 507.37 87.1763 506.735 87.567C506.149 87.9577 505.758 88.3484 505.612 88.788C505.465 89.2275 505.416 89.6182 505.416 89.96C505.416 90.3019 505.465 90.7414 505.612 91.2787C505.758 91.8159 506.393 92.3042 507.614 92.8414C508.835 93.3786 510.788 93.8182 513.523 94.16C516.258 94.5019 520.165 94.6973 525.293 94.6973C526.074 94.6973 527.295 94.6973 529.005 94.8438C530.714 94.9414 532.57 95.1856 534.67 95.5763C536.77 95.967 538.87 96.5531 541.116 97.3345C543.363 98.1159 545.316 99.2391 547.172 100.655C548.979 102.072 550.493 103.927 551.665 106.125C552.837 108.323 553.423 111.009 553.423 114.134C553.423 118.921 552.837 122.827 551.714 125.904C550.591 128.981 548.881 131.374 546.586 133.132C544.291 134.89 541.36 136.062 537.795 136.746C534.23 137.43 530.079 137.772 525.342 137.772H490.374V118.823H525.342C527.491 118.823 529.2 118.627 530.421 118.286C531.642 117.944 532.521 117.504 533.156 117.065C533.742 116.576 534.133 116.088 534.279 115.551C534.426 115.014 534.474 114.574 534.474 114.134C534.474 113.695 534.426 113.255 534.279 112.767C534.133 112.279 533.791 111.839 533.156 111.448C532.57 111.058 531.642 110.716 530.421 110.472C529.2 110.227 527.539 110.081 525.342 110.081L525.391 109.983Z" fill="#005BA1"/>
<path d="M560.211 130.151C560.211 127.123 561.188 124.584 563.19 122.63C565.193 120.628 567.684 119.651 570.711 119.651C573.739 119.651 576.279 120.628 578.232 122.63C580.235 124.633 581.211 127.123 581.211 130.151C581.211 133.179 580.235 135.719 578.232 137.672C576.23 139.675 573.739 140.651 570.711 140.651C567.684 140.651 565.144 139.675 563.19 137.672C561.188 135.67 560.211 133.179 560.211 130.151Z" fill="#005BA1"/>
<path d="M620.526 154.816H625.215C626.436 155.012 627.754 154.865 629.219 154.474C630.684 154.084 632.052 153.546 633.224 152.912C634.445 152.277 635.471 151.446 636.35 150.519C637.229 149.542 637.668 148.565 637.766 147.539V135.965C633.077 138.407 627.95 139.628 622.284 139.628C616.619 139.628 611.54 138.602 607.291 136.502C602.994 134.402 599.429 131.667 596.547 128.249C593.666 124.83 591.566 120.923 590.101 116.577C588.684 112.181 587.952 107.737 587.952 103.195C587.952 98.6534 588.684 94.2092 590.101 89.8139C591.517 85.4185 593.666 81.5604 596.547 78.1418C599.429 74.7232 602.994 71.9395 607.291 69.8395C611.589 67.7395 616.571 66.665 622.284 66.665C627.071 66.665 631.515 67.5929 635.715 69.3999C639.915 71.2069 643.577 73.6976 646.703 76.8232C649.829 79.9488 652.271 83.6116 654.029 87.8604C655.787 92.1092 656.715 96.6023 656.715 101.388V147.637C656.275 152.326 655.005 156.232 652.905 159.456C650.805 162.679 648.217 165.219 645.189 167.172C642.161 169.126 638.84 170.493 635.324 171.274C631.759 172.056 628.34 172.3 625.068 172.056C621.454 172.056 618.182 171.665 615.301 170.884L620.478 154.865L620.526 154.816ZM605.045 103.195C605.045 105.588 605.484 107.884 606.412 109.984C607.34 112.084 608.561 113.939 610.124 115.551C611.687 117.163 613.494 118.384 615.594 119.312C617.694 120.239 619.94 120.679 622.333 120.679C624.726 120.679 627.022 120.239 629.171 119.312C631.271 118.384 633.126 117.163 634.689 115.551C636.252 113.939 637.473 112.084 638.401 109.984C639.329 107.884 639.768 105.588 639.768 103.195C639.768 100.802 639.329 98.5069 638.401 96.3092C637.473 94.1604 636.252 92.2557 634.689 90.6929C633.126 89.0813 631.271 87.8604 629.171 86.9325C627.071 86.0046 624.775 85.565 622.333 85.565C619.891 85.565 617.645 86.0046 615.594 86.9325C613.543 87.8604 611.687 89.0813 610.124 90.6929C608.561 92.3046 607.34 94.1604 606.412 96.3092C605.484 98.4581 605.045 100.753 605.045 103.195Z" fill="#005BA1"/>
<path d="M663.405 103.246C663.405 98.1182 664.333 93.3321 666.286 88.8879C668.191 84.4438 670.779 80.5368 674.003 77.2647C677.275 73.9926 681.084 71.3554 685.479 69.4507C689.875 67.5461 694.661 66.5693 699.789 66.5693C704.917 66.5693 709.703 67.5461 714.147 69.4507C718.591 71.3554 722.498 73.9438 725.77 77.2647C729.042 80.5368 731.68 84.4438 733.584 88.8879C735.489 93.3321 736.466 98.1182 736.466 103.246C736.466 108.374 735.489 113.014 733.584 117.409C731.68 121.804 729.091 125.662 725.77 128.983C722.449 132.304 718.591 134.893 714.147 136.797C709.703 138.702 704.917 139.679 699.789 139.679C694.661 139.679 689.924 138.702 685.479 136.797C681.084 134.893 677.226 132.304 674.003 128.983C670.731 125.711 668.191 121.853 666.286 117.409C664.382 113.014 663.405 108.276 663.405 103.246ZM682.354 103.197C682.354 105.59 682.793 107.886 683.721 109.986C684.649 112.086 685.87 113.941 687.433 115.553C688.996 117.165 690.803 118.386 692.903 119.314C695.003 120.241 697.249 120.681 699.691 120.681C702.133 120.681 704.428 120.241 706.528 119.314C708.628 118.386 710.484 117.165 712.096 115.553C713.707 113.941 714.88 112.086 715.807 109.986C716.735 107.886 717.175 105.59 717.175 103.197C717.175 100.804 716.735 98.5089 715.807 96.3112C714.88 94.1624 713.659 92.2577 712.096 90.6949C710.533 89.0833 708.677 87.8624 706.528 86.9344C704.379 86.0065 702.133 85.567 699.691 85.567C697.249 85.567 695.003 86.0065 692.903 86.9344C690.803 87.8624 688.996 89.0833 687.433 90.6949C685.87 92.3065 684.649 94.1624 683.721 96.3112C682.793 98.46 682.354 100.755 682.354 103.197Z" fill="#005BA1"/>
<path d="M762.056 137.674H743.108V46.7393H762.056V137.723V137.674Z" fill="#005BA1"/>
<path d="M840.001 104.953C840.001 109.739 839.024 114.232 837.022 118.481C835.019 122.73 832.333 126.393 828.963 129.518C825.594 132.644 821.687 135.086 817.34 136.942C812.945 138.749 808.403 139.676 803.617 139.676C797.903 139.676 792.775 138.651 788.282 136.6C783.789 134.549 779.98 131.911 776.903 128.639C773.826 125.367 771.482 121.704 769.822 117.553C768.161 113.451 767.331 109.202 767.331 104.856C767.331 100.509 767.966 96.0648 769.284 91.523C770.603 86.9811 772.654 82.83 775.536 79.1672C778.417 75.5044 782.128 72.4276 786.719 70.0346C791.31 67.6416 796.926 66.4695 803.617 66.4695C806.401 66.4695 809.429 66.7625 812.701 67.3974C815.973 68.0323 818.756 68.9114 821.003 70.1323V46.7393H839.952V104.953H840.001ZM820.759 103.146C820.759 100.704 820.319 98.409 819.391 96.2602C818.463 94.1113 817.242 92.2067 815.68 90.5951C814.117 88.9834 812.31 87.7137 810.21 86.8346C808.11 85.9067 805.863 85.4672 803.47 85.4672C801.077 85.4672 798.782 85.9067 796.633 86.8346C794.533 87.7625 792.677 88.9834 791.115 90.5951C789.552 92.2067 788.331 94.0625 787.403 96.2602C786.475 98.409 786.035 100.704 786.035 103.146C786.035 105.588 786.475 107.835 787.403 109.983C788.331 112.083 789.552 113.988 791.115 115.551C792.677 117.163 794.533 118.432 796.633 119.311C798.733 120.239 801.029 120.679 803.47 120.679C805.912 120.679 808.159 120.239 810.21 119.311C812.31 118.383 814.117 117.163 815.68 115.551C817.242 113.939 818.463 112.083 819.391 109.983C820.319 107.883 820.759 105.588 820.759 103.146Z" fill="#005BA1"/>
<path d="M165.363 94.063V135.916H147.977V23.1025H186.217C197.4 23.1025 206.24 26.3746 212.833 32.9677C219.377 39.5118 222.698 48.2049 222.698 59.0467C222.698 69.8886 219.475 78.7281 213.077 84.8816C206.631 91.0351 197.644 94.1118 186.07 94.1118H165.412L165.363 94.063ZM165.363 78.2398H186.217C192.419 78.2398 197.107 76.5793 200.379 73.3072C203.651 70.0351 205.263 65.2979 205.263 59.0956C205.263 52.8932 203.603 48.156 200.331 44.4932C197.058 40.8304 192.517 38.9746 186.754 38.877H165.412V78.2398H165.363Z" fill="#005BA1"/>
</g>
<defs>
<clipPath id="clip0_1006_16255">
<rect width="840" height="185.581" fill="white"/>
</clipPath>
</defs>
</svg>
