<svg width="36" height="36" fill="none" xmlns="http://www.w3.org/2000/svg">
    <path d="M36 18c0 9.941-8.059 18-18 18-9.94 0-18-8.059-18-18C0 8.06 8.06 0 18 0c9.941 0 18 8.06 18 18z"
          fill="#FFCC4D"/>
    <path d="M18 33c2.761 0 5-2.686 5-6s-2.239-6-5-6-5 2.686-5 6 2.239 6 5 6zM5.999 11A1 1 0 015.2 9.4C8.462 5.05 12.816 5 13 5a1 1 0 01.004 2c-.155.002-3.568.086-6.204 3.6a.998.998 0 01-.801.4zm24.002 0a.998.998 0 01-.801-.4c-2.64-3.521-6.061-3.598-6.206-3.6a1.002 1.002 0 01-.991-1.005A.997.997 0 0123 5c.184 0 4.537.05 7.8 4.4a1 1 0 01-.799 1.6z"
          fill="#664500"/>
    <path d="M18 23c-1.657 0-3 1.79-3 4h6c0-2.21-1.343-4-3-4z" fill="#F5F8FA"/>
    <path d="M12 18c1.38 0 2.5-1.567 2.5-3.5S13.38 11 12 11s-2.5 1.567-2.5 3.5S10.62 18 12 18zM24 18c1.38 0 2.5-1.567 2.5-3.5S25.38 11 24 11s-2.5 1.567-2.5 3.5S22.62 18 24 18z"
          fill="#664500"/>
</svg>
