<svg width="30" height="30" fill="none" xmlns="http://www.w3.org/2000/svg">
    <path d="M30 15c0 8.284-6.716 15-15 15-8.283 0-15-6.716-15-15C0 6.717 6.717 0 15 0c8.284 0 15 6.717 15 15z"
          fill="#FFCC4D"/>
    <path d="M15 18.333c-3.02 0-5.023-.351-7.5-.833-.566-.11-1.667 0-1.667 1.667 0 3.333 3.83 7.5 9.167 7.5s9.167-4.167 9.167-7.5c0-1.667-1.101-1.777-1.667-1.667-2.478.482-4.48.833-7.5.833z"
          fill="#664500"/>
    <path d="M7.5 19.167S10 20 15 20s7.5-.833 7.5-.833S20.833 22.5 15 22.5s-7.5-3.333-7.5-3.333z" fill="#fff"/>
    <path d="M25.5 15.167c-.095-.071-1.61-1.189-3.872-1.954.022-.095.039-.194.039-.296 0-.308-.116-.586-.3-.804a11.555 11.555 0 012.801-.446.834.834 0 00-.001-1.667c-.184 0-4.543.032-7.256 2.744a.833.833 0 00.589 1.423c3.825 0 6.97 2.31 7 2.334a.835.835 0 001.167-.168c.275-.37.2-.89-.167-1.166zm-12.41-2.423C10.376 10.032 6.017 10 5.832 10a.834.834 0 000 1.667c.021 0 1.298.013 2.8.446a1.24 1.24 0 00-.3.804c0 .102.016.2.04.296-2.264.765-3.778 1.883-3.873 1.954a.832.832 0 101 1.333c.03-.023 3.156-2.333 7-2.333a.835.835 0 00.59-1.423z"
          fill="#664500"/>
</svg>